<?xml version="1.0" encoding="UTF-8"?>
<svg width="100px" height="100px" viewBox="0 0 100 100" version="1.1" xmlns="http://www.w3.org/2000/svg" xmlns:xlink="http://www.w3.org/1999/xlink">
    <title>common-large-palette</title>
    <g id="common-large-palette" stroke="none" stroke-width="1" fill="none" fill-rule="evenodd">
        <g id="Group" stroke-width="2">
            <g id="Group-2" transform="translate(9.000000, 9.000000)">
                <g id="Group" transform="translate(1.627964, 0.000000)">
                    <path d="M29,52.5906144 L29,76 C29,76.8284271 28.6642136,77.5784271 28.1213203,78.1213203 C27.5784271,78.6642136 26.8284271,79 26,79 L26,79 L4,79 C3.17157288,79 2.42157288,78.6642136 1.87867966,78.1213203 C1.33578644,77.5784271 1,76.8284271 1,76 L1,76 L1,52.5906144 L29,52.5906144 Z" id="Rectangle" stroke="#979797" fill="#D8D8D8"></path>
                    <rect id="Rectangle" stroke="#111517" fill="#F8CF80" x="1" y="27.6666667" width="28" height="24.6666667"></rect>
                    <path d="M26,1 C26.8284271,1 27.5784271,1.33578644 28.1213203,1.87867966 C28.6642136,2.42157288 29,3.17157288 29,4 L29,4 L29,27.6666667 L1,27.6666667 L1,4 C1,3.17157288 1.33578644,2.42157288 1.87867966,1.87867966 C2.42157288,1.33578644 3.17157288,1 4,1 L4,1 Z" id="Rectangle" stroke="#111517" fill="#F3AF2B"></path>
                </g>
                <g id="Group" transform="translate(38.890873, 42.483103) rotate(45.000000) translate(-38.890873, -42.483103) translate(23.890873, 2.483103)" stroke="#111517">
                    <path d="M29,52.5906144 L29,76 C29,76.8284271 28.6642136,77.5784271 28.1213203,78.1213203 C27.5784271,78.6642136 26.8284271,79 26,79 L26,79 L4,79 C3.17157288,79 2.42157288,78.6642136 1.87867966,78.1213203 C1.33578644,77.5784271 1,76.8284271 1,76 L1,76 L1,52.5906144 L29,52.5906144 Z" id="Rectangle" fill="#F4F4F4"></path>
                    <rect id="Rectangle" fill="#F7768C" x="1" y="27.6666667" width="28" height="24.6666667"></rect>
                    <path d="M26,1 C26.8284271,1 27.5784271,1.33578644 28.1213203,1.87867966 C28.6642136,2.42157288 29,3.17157288 29,4 L29,4 L29,27.6666667 L1,27.6666667 L1,4 C1,3.17157288 1.33578644,2.42157288 1.87867966,1.87867966 C2.42157288,1.33578644 3.17157288,1 4,1 L4,1 Z" id="Rectangle" fill="#F21B3F"></path>
                </g>
                <g id="Group" transform="translate(41.627964, 65.000000) rotate(90.000000) translate(-41.627964, -65.000000) translate(26.627964, 25.000000)" stroke="#111517">
                    <path d="M29,52.5906144 L29,76 C29,76.8284271 28.6642136,77.5784271 28.1213203,78.1213203 C27.5784271,78.6642136 26.8284271,79 26,79 L26,79 L4,79 C3.17157288,79 2.42157288,78.6642136 1.87867966,78.1213203 C1.33578644,77.5784271 1,76.8284271 1,76 L1,76 L1,52.5906144 L29,52.5906144 Z" id="Rectangle" fill="#F4F4F4"></path>
                    <circle id="Oval" fill="#595959" cx="15" cy="66" r="3"></circle>
                    <rect id="Rectangle" fill="#66C258" x="1" y="26.6666667" width="28" height="26"></rect>
                    <path d="M26,1 C26.8284271,1 27.5784271,1.33578644 28.1213203,1.87867966 C28.6642136,2.42157288 29,3.17157288 29,4 L29,4 L29,26.6666667 L1,26.6666667 L1,4 C1,3.17157288 1.33578644,2.42157288 1.87867966,1.87867966 C2.42157288,1.33578644 3.17157288,1 4,1 L4,1 Z" id="Rectangle" fill="#24A810"></path>
                </g>
            </g>
        </g>
    </g>
</svg>