<?xml version="1.0" encoding="UTF-8"?>
<svg width="100px" height="100px" viewBox="0 0 100 100" version="1.1" xmlns="http://www.w3.org/2000/svg" xmlns:xlink="http://www.w3.org/1999/xlink">
    <title>common-large-font</title>
    <g id="common-large-font" stroke="none" stroke-width="1" fill="none" fill-rule="evenodd">
        <g id="Group" fill="#000000" fill-rule="nonzero">
            <g id="icon" transform="translate(10.000000, 12.000000)">
                <path d="M46.4444444,54.8034682 L19.8333333,54.8034682 L16.6666667,62.0520231 C15.6296244,64.4682202 15.1111111,66.4633833 15.1111111,68.0375723 C15.1111111,70.1242879 15.9629544,71.6618448 17.6666667,72.650289 C18.6666717,73.2360338 21.12961,73.6753357 25.0555556,73.9682081 L25.0555556,76 L0,76 L0,73.9682081 C2.70371722,73.5655086 4.92591722,72.4581015 6.66666667,70.6459538 C8.40741611,68.833806 10.5555428,65.0905871 13.1111111,59.416185 L40.0555556,0 L41.1111111,0 L68.2777778,61.0635838 C70.8703833,66.8478131 73,70.4903586 74.6666667,71.9913295 C75.9259322,73.1262099 77.7036922,73.7851629 80,73.9682081 L80,76 L43.5555556,76 L43.5555556,73.9682081 L45.0555556,73.9682081 C47.9814961,73.9682081 50.0370311,73.5655146 51.2222222,72.7601156 C52.0370411,72.1743709 52.4444444,71.3323754 52.4444444,70.234104 C52.4444444,69.5751412 52.3333344,68.897884 52.1111111,68.2023121 C52.0370367,67.8728307 51.4814867,66.5000121 50.4444444,64.083815 L46.4444444,54.8034682 Z M43.7735849,50.6666667 L32.6184998,25.3333333 L21.1320755,50.6666667 L43.7735849,50.6666667 Z" id="A"></path>
            </g>
        </g>
    </g>
</svg>