<svg width="150" height="150" viewBox="0 0 150 150" xmlns="http://www.w3.org/2000/svg" xmlns:xlink="http://www.w3.org/1999/xlink"><title>how-it-works-step-1-logo-maker</title><defs><path id="a" d="M0 .185h92.109v38H0z"/></defs><g fill="none" fill-rule="evenodd"><g transform="translate(16 44)"><path d="M113.931 81.787H4.069c-2.238 0-4.069-.79-4.069-2.963V4.739C0 2.565 1.831.787 4.069.787h109.862C116.169.787 118 2.565 118 4.74v74.085c0 2.173-1.831 2.963-4.069 2.963zM55.12 82.2c0 10.062-2.02 17.106-7.878 17.106h-1.817H75.82h-1.818c-5.857 0-7.877-7.044-7.877-17.106H55.12z" fill="#F4F4F4"/><path d="M118 78.824c0 2.173-1.831 2.963-4.069 2.963H4.069c-2.238 0-4.069-.79-4.069-2.963V4.739C0 2.565 1.831.787 4.069.787h109.862C116.169.787 118 2.565 118 4.74v74.085zM54.069 98.529h-9.353m30.396 0H61.083M64.98 82.2c0 9.857 1.999 16.329 7.794 16.329M54.069 82.2c0 9.857-1.999 16.329-7.794 16.329" stroke="#111517" stroke-width="2"/><path fill="#FFF" d="M10.353 6.776h98.981v58.318H10.353z"/><path stroke="#111517" stroke-width="2" d="M109.334 65.093H10.353V6.776h98.981v51.279"/><g transform="translate(13.045 25.815)"><mask id="b" fill="#fff"><use xlink:href="#a"/></mask><use fill-opacity="0" fill="#D8D8D8" xlink:href="#a"/><path fill="#F21B3F" opacity=".8" mask="url(#b)" d="M1.417 1.422h17.005V18.48H1.417z"/><path fill="#F3AF2B" opacity=".8" mask="url(#b)" d="M25.507 1.422h17.005V18.48H25.507z"/><path fill="#51A829" opacity=".8" mask="url(#b)" d="M49.597 1.422h17.005V18.48H49.597z"/><path fill="#828282" opacity=".8" mask="url(#b)" d="M73.687 1.422h17.005V18.48H73.687z"/><path fill="#D0D0D0" opacity=".8" mask="url(#b)" d="M1.417 25.588h17.005v17.058H1.417z"/><path fill="#0097D7" opacity=".8" mask="url(#b)" d="M25.507 25.588h17.005v17.058H25.507z"/><path fill="#EBB200" opacity=".8" mask="url(#b)" d="M49.597 25.588h17.005v17.058H49.597z"/><path fill="#51A829" opacity=".8" mask="url(#b)" d="M73.687 25.588h17.005v17.058H73.687z"/></g><path d="M42.611 16.895a.399.399 0 0 1-.1.117.218.218 0 0 1-.13.037.324.324 0 0 1-.167-.055 4.081 4.081 0 0 0-.208-.117 2.018 2.018 0 0 0-.273-.117 1.085 1.085 0 0 0-.36-.055c-.243 0-.425.055-.547.163a.543.543 0 0 0-.182.426c0 .112.033.204.1.278a.867.867 0 0 0 .263.19c.108.054.231.102.369.144.137.042.279.088.423.138.145.05.286.11.424.177.137.068.26.153.369.256.109.102.196.228.263.376.066.148.1.328.1.54 0 .232-.041.448-.121.65a1.54 1.54 0 0 1-.91.884 2.095 2.095 0 0 1-.758.129c-.161 0-.322-.016-.481-.049a2.776 2.776 0 0 1-.463-.137 2.549 2.549 0 0 1-.418-.21 1.838 1.838 0 0 1-.343-.273l.308-.497a.311.311 0 0 1 .102-.092.26.26 0 0 1 .133-.037c.063 0 .13.023.2.07.07.047.15.098.24.154.092.056.197.107.317.154s.265.07.433.07c.245 0 .434-.056.569-.168.134-.112.2-.279.2-.5a.469.469 0 0 0-.099-.312.802.802 0 0 0-.26-.2c-.108-.053-.23-.1-.368-.138a11.25 11.25 0 0 1-.424-.127 3.475 3.475 0 0 1-.423-.168 1.227 1.227 0 0 1-.628-.658 1.535 1.535 0 0 1-.1-.592 1.403 1.403 0 0 1 .44-1.022 1.66 1.66 0 0 1 .535-.333c.21-.084.453-.125.726-.125.305 0 .588.047.849.141.26.095.48.226.66.394l-.26.494zm3.255 1.875c0-.1-.013-.195-.04-.287a.62.62 0 0 0-.348-.408.757.757 0 0 0-.319-.06c-.23 0-.412.065-.542.195-.13.131-.216.318-.256.56h1.505zm-1.519.575c.03.338.127.585.289.742.162.156.374.234.635.234.133 0 .248-.016.345-.047.097-.032.182-.067.255-.105l.2-.105a.375.375 0 0 1 .177-.047c.074 0 .133.027.175.084l.28.35a1.524 1.524 0 0 1-.34.295c-.123.078-.252.14-.385.186a2.055 2.055 0 0 1-.402.094 3.058 3.058 0 0 1-.392.026 1.97 1.97 0 0 1-.706-.124 1.6 1.6 0 0 1-.57-.367 1.722 1.722 0 0 1-.383-.604 2.29 2.29 0 0 1-.14-.837c0-.245.04-.475.12-.693.081-.217.197-.405.349-.567a1.66 1.66 0 0 1 .553-.383c.217-.094.462-.142.735-.142.23 0 .444.037.639.11.194.074.362.181.504.321.14.14.25.312.329.516a1.943 1.943 0 0 1 .106.877.317.317 0 0 1-.035.112.128.128 0 0 1-.066.058.314.314 0 0 1-.109.015h-2.163zm4.869.146a4.508 4.508 0 0 0-.588.062c-.157.029-.28.067-.373.113a.489.489 0 0 0-.196.16.35.35 0 0 0-.058.194c0 .14.04.24.117.297a.538.538 0 0 0 .328.088c.16 0 .3-.029.418-.086.118-.057.235-.146.352-.267v-.56zm-1.967-1.599c.212-.191.447-.334.703-.429.257-.094.535-.142.833-.142.215 0 .407.035.576.105a1.23 1.23 0 0 1 .702.739c.063.173.094.362.094.567V21h-.44a.45.45 0 0 1-.209-.038c-.048-.026-.087-.08-.117-.162l-.077-.23c-.091.079-.18.149-.264.21-.086.06-.174.11-.265.152a1.38 1.38 0 0 1-.292.093c-.104.02-.22.031-.348.031-.159 0-.304-.021-.434-.063a.943.943 0 0 1-.338-.187.826.826 0 0 1-.219-.31 1.106 1.106 0 0 1-.077-.427.87.87 0 0 1 .102-.399.981.981 0 0 1 .348-.362 2.21 2.21 0 0 1 .658-.27 4.602 4.602 0 0 1 1.03-.12v-.186c0-.226-.047-.393-.143-.499-.095-.106-.233-.159-.413-.159-.133 0-.244.016-.332.047a1.633 1.633 0 0 0-.233.102l-.187.101a.42.42 0 0 1-.203.047.277.277 0 0 1-.17-.05.466.466 0 0 1-.114-.121l-.171-.308zm4.57.095c.115-.206.247-.368.396-.487a.817.817 0 0 1 .525-.178.65.65 0 0 1 .4.115l-.064.714c-.011.047-.03.079-.054.096a.169.169 0 0 1-.1.026c-.037 0-.09-.005-.16-.015a1.326 1.326 0 0 0-.197-.016.673.673 0 0 0-.236.038.593.593 0 0 0-.184.109.783.783 0 0 0-.145.172 1.64 1.64 0 0 0-.12.23V21h-.967v-3.608h.57c.099 0 .166.017.204.052.037.035.064.096.08.182l.053.36zm4.267.21a.392.392 0 0 1-.084.085.204.204 0 0 1-.119.03.252.252 0 0 1-.135-.04 3.983 3.983 0 0 0-.148-.088 1.243 1.243 0 0 0-.2-.087.881.881 0 0 0-.287-.04.84.84 0 0 0-.376.078.704.704 0 0 0-.264.226 1.02 1.02 0 0 0-.156.357c-.034.14-.05.297-.05.473 0 .368.073.65.221.847a.72.72 0 0 0 .608.293c.088 0 .165-.007.229-.022a.807.807 0 0 0 .168-.058.665.665 0 0 0 .124-.077 3.4 3.4 0 0 1 .1-.077.588.588 0 0 1 .095-.058.243.243 0 0 1 .106-.023c.075 0 .133.028.175.085l.277.35a1.648 1.648 0 0 1-.691.48 1.827 1.827 0 0 1-.38.095 2.82 2.82 0 0 1-.382.026c-.221 0-.431-.04-.63-.124a1.506 1.506 0 0 1-.521-.362 1.74 1.74 0 0 1-.355-.584 2.222 2.222 0 0 1-.132-.791c0-.264.039-.51.116-.735a1.565 1.565 0 0 1 .894-.978c.22-.095.475-.142.765-.142.275 0 .517.044.724.133.208.088.395.216.56.384l-.252.343zm1.736-.452a2.09 2.09 0 0 1 .212-.166 1.43 1.43 0 0 1 .5-.214c.095-.02.197-.03.307-.03.196 0 .37.034.521.102.152.068.28.162.383.284.104.12.182.265.235.433.053.169.079.353.079.553V21h-.963v-2.293c0-.2-.046-.356-.14-.467-.093-.11-.23-.166-.413-.166a.855.855 0 0 0-.381.087c-.12.059-.232.14-.34.245V21h-.966v-5.219h.966v1.964zm5.639-1.964V21h-.966v-5.219h.966zm2.432 1.554c.27 0 .517.044.739.13.221.086.412.21.57.37.159.16.281.353.368.582.086.229.13.486.13.773a2.2 2.2 0 0 1-.13.776c-.087.23-.21.425-.368.586a1.61 1.61 0 0 1-.57.371 2.02 2.02 0 0 1-.739.13c-.273 0-.52-.044-.743-.13a1.607 1.607 0 0 1-.573-.371 1.669 1.669 0 0 1-.369-.586 2.165 2.165 0 0 1-.131-.776c0-.287.043-.544.131-.773a1.603 1.603 0 0 1 .942-.952c.222-.086.47-.13.743-.13zm0 2.993c.276 0 .48-.095.613-.285.133-.19.2-.473.2-.849 0-.373-.067-.655-.2-.845-.133-.19-.337-.285-.613-.285-.282 0-.49.095-.623.285-.133.19-.2.472-.2.845 0 .376.067.659.2.849.133.19.34.285.623.285zm3.728-1.267c.198 0 .344-.05.439-.15.095-.1.142-.23.142-.389a.527.527 0 0 0-.142-.39c-.095-.095-.24-.142-.44-.142-.198 0-.343.047-.437.142a.531.531 0 0 0-.14.39c0 .156.047.285.142.387.095.101.24.152.436.152zm.913 2.086a.208.208 0 0 0-.06-.154.416.416 0 0 0-.159-.095 1.099 1.099 0 0 0-.236-.05 5.028 5.028 0 0 0-.29-.025 22.428 22.428 0 0 0-.319-.015 4.74 4.74 0 0 1-.322-.025.733.733 0 0 0-.201.173.355.355 0 0 0-.038.387.33.33 0 0 0 .134.126.848.848 0 0 0 .249.082c.102.02.23.03.385.03.158 0 .293-.01.402-.032a.874.874 0 0 0 .266-.089.363.363 0 0 0 .145-.138.36.36 0 0 0 .044-.175zm.96-3.636v.353c0 .056-.016.1-.048.133a.308.308 0 0 1-.156.073l-.294.06c.04.114.06.237.06.367a1.048 1.048 0 0 1-.413.853 1.4 1.4 0 0 1-.455.234 1.887 1.887 0 0 1-.567.082 1.94 1.94 0 0 1-.36-.031c-.099.06-.148.127-.148.2 0 .067.033.116.1.146.067.03.154.052.263.065.108.013.232.021.37.025.14.003.28.01.424.022.144.012.285.033.424.062.138.029.262.077.37.143a.78.78 0 0 1 .263.265.8.8 0 0 1 .1.423 1 1 0 0 1-.12.469 1.25 1.25 0 0 1-.344.406 1.79 1.79 0 0 1-.555.287 2.4 2.4 0 0 1-.749.108c-.277 0-.518-.026-.723-.078a1.704 1.704 0 0 1-.507-.21.901.901 0 0 1-.3-.303.71.71 0 0 1-.097-.357.6.6 0 0 1 .147-.41c.098-.112.233-.201.406-.269a.627.627 0 0 1-.219-.201.577.577 0 0 1-.082-.324.63.63 0 0 1 .117-.34.877.877 0 0 1 .362-.297 1.163 1.163 0 0 1-.437-.394 1.03 1.03 0 0 1-.161-.576 1.059 1.059 0 0 1 .416-.855c.13-.102.285-.18.462-.233.178-.054.37-.08.578-.08.308 0 .58.06.815.181h1.057zm2.064-.175c.27 0 .517.043.739.129.221.086.412.21.57.37.159.16.281.353.368.582.086.229.13.486.13.773a2.2 2.2 0 0 1-.13.776c-.087.23-.21.425-.368.586a1.61 1.61 0 0 1-.57.371 2.02 2.02 0 0 1-.739.13c-.273 0-.52-.044-.744-.13a1.607 1.607 0 0 1-.572-.371 1.669 1.669 0 0 1-.369-.586 2.165 2.165 0 0 1-.131-.776c0-.287.043-.544.131-.773a1.603 1.603 0 0 1 .942-.952c.222-.086.47-.13.743-.13zm0 2.992c.276 0 .48-.095.613-.285.133-.19.2-.473.2-.849 0-.373-.067-.655-.2-.845-.133-.19-.337-.285-.613-.285-.282 0-.49.095-.623.285-.133.19-.2.472-.2.845 0 .376.067.659.2.849.133.19.34.285.623.285zm4.659-2.194a.285.285 0 0 1-.079.085.2.2 0 0 1-.11.026.332.332 0 0 1-.144-.035 6.514 6.514 0 0 0-.164-.075 1.766 1.766 0 0 0-.209-.075.95.95 0 0 0-.27-.035.6.6 0 0 0-.365.096.301.301 0 0 0-.13.254c0 .072.025.133.074.182a.646.646 0 0 0 .195.128c.08.036.172.07.274.101.103.032.208.066.317.104.109.037.214.08.317.129.102.049.194.11.275.184.08.073.145.162.194.266a.876.876 0 0 1 .073.376c0 .175-.032.337-.096.485a1.06 1.06 0 0 1-.282.383 1.33 1.33 0 0 1-.462.252c-.184.06-.396.091-.637.091a2.04 2.04 0 0 1-.714-.128 2.191 2.191 0 0 1-.308-.142 1.376 1.376 0 0 1-.248-.175l.224-.36a.287.287 0 0 1 .096-.098.284.284 0 0 1 .149-.035c.058 0 .112.015.16.044l.165.094c.06.034.133.066.216.095a.943.943 0 0 0 .31.044.82.82 0 0 0 .24-.032.456.456 0 0 0 .165-.086.342.342 0 0 0 .123-.264.263.263 0 0 0-.076-.194.676.676 0 0 0-.195-.131 1.95 1.95 0 0 0-.279-.102 6.7 6.7 0 0 1-.32-.101 2.701 2.701 0 0 1-.319-.133 1.083 1.083 0 0 1-.276-.195.902.902 0 0 1-.196-.288 1.034 1.034 0 0 1-.075-.417 1.003 1.003 0 0 1 .35-.78 1.28 1.28 0 0 1 .435-.245 1.83 1.83 0 0 1 .604-.091c.257 0 .49.041.7.126.21.084.383.193.518.329l-.22.343z" fill="#111517"/><ellipse fill="#D0D0D0" cx="59.772" cy="74.276" rx="3.507" ry="3.499"/></g><path d="M75 29c6.627 0 12-5.373 12-12S81.627 5 75 5s-12 5.373-12 12 5.373 12 12 12z" stroke="#111517" stroke-width="2" fill="#FFF"/><path d="M78.06 19.715v1.4h-5.295v-1.4h1.786V15.12a9.874 9.874 0 0 1 .026-.713l-1.059.863a.627.627 0 0 1-.277.128.767.767 0 0 1-.259 0 .614.614 0 0 1-.217-.081.482.482 0 0 1-.14-.122L72 14.382 74.896 12h1.633v7.715h1.53z" fill="#111517"/></g></svg>