<svg width="150" height="150" viewBox="0 0 150 150" xmlns="http://www.w3.org/2000/svg"><title>how-it-works-step-3-logo-maker</title><g fill="none" fill-rule="evenodd"><g transform="translate(63 5)"><ellipse stroke="#111517" stroke-width="2" fill="#FFF" cx="12" cy="11.999" rx="12" ry="11.999"/><path d="M9.241 9.707c.065-.455.188-.852.371-1.19.183-.339.41-.62.681-.846a2.73 2.73 0 0 1 .932-.505c.35-.11.726-.166 1.128-.166.434 0 .82.064 1.157.191.338.128.624.3.857.517.233.217.41.47.53.755.121.286.181.588.181.906 0 .288-.028.542-.084.761-.056.22-.14.41-.25.57a1.56 1.56 0 0 1-.41.408 2.48 2.48 0 0 1-.558.279c.973.355 1.46 1.044 1.46 2.067 0 .485-.085.907-.254 1.266a2.59 2.59 0 0 1-.679.896 2.867 2.867 0 0 1-.985.536c-.374.12-.764.179-1.17.179-.418 0-.79-.047-1.116-.141a2.53 2.53 0 0 1-.868-.439 2.868 2.868 0 0 1-.667-.761A5.2 5.2 0 0 1 9 13.887l.832-.351c.217-.088.418-.11.603-.069a.567.567 0 0 1 .398.288c.181.347.373.599.576.755.203.157.441.235.715.235.209 0 .39-.036.545-.11a1.19 1.19 0 0 0 .386-.281 1.17 1.17 0 0 0 .232-.392c.053-.146.079-.294.079-.445a3.15 3.15 0 0 0-.04-.53.699.699 0 0 0-.22-.404c-.12-.112-.302-.199-.545-.26-.243-.06-.582-.09-1.016-.09V10.89c.365 0 .661-.029.886-.087.225-.059.4-.14.522-.242a.73.73 0 0 0 .244-.372c.04-.147.06-.307.06-.483 0-.36-.083-.636-.25-.83-.167-.194-.421-.292-.763-.292a1.09 1.09 0 0 0-.702.23 1.17 1.17 0 0 0-.395.566c-.085.23-.195.383-.332.458-.137.075-.332.092-.585.05l-.989-.182z" fill="#111517"/></g><g transform="translate(16 44)"><path d="M113.931 81.787H4.069c-2.238 0-4.069-.79-4.069-2.963V4.739C0 2.565 1.831.787 4.069.787h109.862C116.169.787 118 2.565 118 4.74v74.085c0 2.173-1.831 2.963-4.069 2.963zM55.12 82.2c0 10.062-2.02 17.106-7.878 17.106h-1.817H75.82h-1.818c-5.857 0-7.877-7.044-7.877-17.106H55.12z" fill="#F4F4F4"/><path d="M118 78.824c0 2.173-1.831 2.963-4.069 2.963H4.069c-2.238 0-4.069-.79-4.069-2.963V4.739C0 2.565 1.831.787 4.069.787h109.862C116.169.787 118 2.565 118 4.74v74.085zM54.069 98.529h-9.353m30.396 0H61.083M64.98 82.2c0 9.857 1.999 16.329 7.794 16.329M54.069 82.2c0 9.857-1.999 16.329-7.794 16.329" stroke="#111517" stroke-width="2"/><path fill="#FFF" d="M10.353 6.776h98.981v58.318H10.353z"/><path stroke="#111517" stroke-width="2" d="M109.334 65.093H10.353V6.776h98.981v51.279"/><path d="M65.252 56H29.216c-2.493 0-4.513-1.8-4.513-4.008V15.508c0-2.214 2.023-4.008 4.513-4.008h58.568c2.493 0 4.513 1.8 4.513 4.008V34.93" stroke="#D0D0D0" stroke-width="2" fill="#FFF"/><path d="M56.854 43H44.946a.953.953 0 0 1-.946-.96V29.96c0-.53.424-.96.946-.96h11.908c.522 0 .946.43.946.96v12.08c0 .53-.424.96-.946.96" fill="#24A810"/><path d="M54.42 32.97c3.142 4.7-1.874 9.788-6.506 6.601a2.04 2.04 0 0 1-.534-.542c-3.142-4.699 1.874-9.787 6.506-6.6.208.143.393.33.534.542" fill="#A4E869"/><path d="M73.054 43H61.146a.953.953 0 0 1-.946-.96V29.96c0-.53.424-.96.946-.96h11.908c.522 0 .946.43.946.96v12.08c0 .53-.424.96-.946.96" fill="#0097D7"/><path d="M62.254 29H50.346a.953.953 0 0 1-.946-.96V15.96c0-.53.424-.96.946-.96h11.908c.522 0 .946.43.946.96v12.08c0 .53-.424.96-.946.96" fill="#F3AF2B"/><path fill="#F3D55B" d="M60.8 21.696l-4.5 4.87-4.5-4.87 4.5-4.6 4.5 4.6"/><path fill="#B0D3F0" d="M71.6 39.957h-9l4.5-8.86 4.5 8.86"/><path d="M45.014 50.224v.855H42V46h1.05v4.224h1.964zm1.984-2.81c.27 0 .517.043.739.13.221.086.411.209.57.369.159.16.281.354.367.583.087.228.13.486.13.773 0 .287-.043.545-.13.775-.086.23-.208.425-.367.587a1.61 1.61 0 0 1-.57.37 2.02 2.02 0 0 1-.739.13c-.273 0-.52-.043-.744-.13a1.607 1.607 0 0 1-.572-.37 1.669 1.669 0 0 1-.37-.587 2.165 2.165 0 0 1-.13-.775c0-.287.043-.545.13-.773.088-.23.211-.423.37-.583.159-.16.35-.283.572-.37.223-.086.471-.129.744-.129zm0 2.992c.275 0 .48-.095.613-.285.133-.19.199-.473.199-.849 0-.373-.066-.655-.2-.845-.133-.19-.337-.285-.612-.285-.282 0-.49.095-.623.285-.133.19-.2.472-.2.846 0 .375.067.658.2.848.133.19.34.285.623.285zm3.727-1.267c.199 0 .345-.05.44-.15.094-.1.142-.23.142-.389a.527.527 0 0 0-.142-.39c-.095-.094-.241-.142-.44-.142-.198 0-.344.048-.437.142a.531.531 0 0 0-.14.39c0 .157.047.286.142.387.094.102.24.152.435.152zm.914 2.086a.208.208 0 0 0-.06-.154.416.416 0 0 0-.159-.094 1.099 1.099 0 0 0-.236-.05 5.028 5.028 0 0 0-.29-.025 22.428 22.428 0 0 0-.319-.016 4.74 4.74 0 0 1-.322-.025.733.733 0 0 0-.201.174.355.355 0 0 0-.039.387.33.33 0 0 0 .135.126.848.848 0 0 0 .248.082c.103.02.231.03.386.03.158 0 .292-.011.402-.032a.874.874 0 0 0 .266-.09.363.363 0 0 0 .145-.137.36.36 0 0 0 .044-.176zm.959-3.636v.354c0 .056-.016.1-.047.133a.308.308 0 0 1-.156.073l-.294.06c.04.114.06.236.06.367a1.048 1.048 0 0 1-.413.852 1.4 1.4 0 0 1-.456.235 1.887 1.887 0 0 1-.567.082c-.128 0-.248-.01-.36-.031-.098.06-.147.127-.147.199 0 .068.033.117.1.147.066.03.154.052.262.065.109.013.232.02.371.024.14.004.28.011.424.023.143.012.284.032.423.061.14.03.263.077.371.144a.78.78 0 0 1 .263.264c.066.11.1.25.1.424a1 1 0 0 1-.12.468 1.277 1.277 0 0 1-.344.407 1.79 1.79 0 0 1-.555.287 2.4 2.4 0 0 1-.749.108c-.278 0-.519-.026-.723-.079a1.704 1.704 0 0 1-.507-.21.901.901 0 0 1-.3-.303.71.71 0 0 1-.098-.357.6.6 0 0 1 .147-.409c.099-.112.234-.202.407-.27a.627.627 0 0 1-.22-.2.577.577 0 0 1-.081-.325c0-.107.039-.22.117-.339a.877.877 0 0 1 .362-.298 1.163 1.163 0 0 1-.438-.393 1.03 1.03 0 0 1-.16-.576 1.059 1.059 0 0 1 .416-.856c.13-.101.285-.179.462-.233.177-.053.37-.08.577-.08.309 0 .58.06.816.182h1.057zm2.065-.175c.27 0 .517.043.739.13.221.086.411.209.57.369.159.16.281.354.367.583.087.228.13.486.13.773 0 .287-.043.545-.13.775-.086.23-.208.425-.367.587a1.61 1.61 0 0 1-.57.37 2.02 2.02 0 0 1-.739.13c-.273 0-.52-.043-.744-.13a1.607 1.607 0 0 1-.572-.37 1.669 1.669 0 0 1-.37-.587 2.165 2.165 0 0 1-.13-.775c0-.287.043-.545.13-.773.088-.23.211-.423.37-.583.159-.16.35-.283.572-.37.223-.086.471-.129.744-.129zm0 2.992c.275 0 .48-.095.613-.285.133-.19.199-.473.199-.849 0-.373-.066-.655-.2-.845-.133-.19-.337-.285-.612-.285-.282 0-.49.095-.623.285-.133.19-.2.472-.2.846 0 .375.067.658.2.848.133.19.34.285.623.285zm4.974-2.516a2.32 2.32 0 0 1 .225-.193 1.354 1.354 0 0 1 .863-.283c.196 0 .37.034.522.102.151.067.279.162.383.283.104.121.182.266.234.434.053.168.079.352.079.553v2.292h-.962v-2.292c0-.2-.047-.356-.14-.467-.094-.111-.231-.166-.413-.166a.855.855 0 0 0-.382.087 1.32 1.32 0 0 0-.34.245v2.593h-.966V47.47h.596c.12 0 .201.056.241.168l.06.252zm4.959 1.68a4.508 4.508 0 0 0-.588.061c-.156.03-.28.067-.373.114a.489.489 0 0 0-.196.16.35.35 0 0 0-.057.194c0 .14.039.239.117.297a.538.538 0 0 0 .327.087.95.95 0 0 0 .418-.085 1.27 1.27 0 0 0 .352-.268v-.56zm-1.967-1.6c.212-.19.447-.334.704-.428.256-.095.534-.142.832-.142.215 0 .407.035.576.105a1.23 1.23 0 0 1 .702.738c.063.173.094.362.094.567v2.268h-.44a.45.45 0 0 1-.209-.038c-.048-.026-.087-.08-.117-.161l-.077-.231c-.091.08-.18.15-.264.21-.085.06-.173.111-.265.152a1.38 1.38 0 0 1-.292.093c-.104.021-.22.032-.348.032-.159 0-.303-.021-.434-.063a.943.943 0 0 1-.338-.188.826.826 0 0 1-.218-.31 1.106 1.106 0 0 1-.077-.426c0-.134.033-.266.101-.4a.981.981 0 0 1 .348-.362 2.21 2.21 0 0 1 .658-.27 4.602 4.602 0 0 1 1.031-.12v-.186c0-.226-.048-.392-.144-.498-.095-.106-.233-.16-.412-.16a.99.99 0 0 0-.333.048 1.633 1.633 0 0 0-.233.101l-.187.102a.42.42 0 0 1-.203.047.277.277 0 0 1-.17-.05.466.466 0 0 1-.114-.121l-.171-.309zm3.664 3.108V47.47h.595c.122 0 .202.056.242.168l.056.235c.063-.066.128-.126.194-.182a1.148 1.148 0 0 1 .758-.276.836.836 0 0 1 .55.176c.144.118.254.274.328.47a1.116 1.116 0 0 1 .496-.496c.101-.052.209-.09.322-.114.113-.025.227-.037.341-.037.203 0 .383.03.539.091.156.06.288.15.394.268.106.118.187.262.243.432.056.17.084.364.084.581v2.292h-.966v-2.292c0-.422-.18-.633-.542-.633a.616.616 0 0 0-.226.04.512.512 0 0 0-.305.32.788.788 0 0 0-.043.273v2.292h-.966v-2.292c0-.229-.045-.391-.135-.488-.09-.097-.222-.145-.397-.145a.667.667 0 0 0-.317.078 1.05 1.05 0 0 0-.278.219v2.628h-.967zm8.194-2.229c0-.1-.013-.196-.04-.287a.62.62 0 0 0-.348-.408.757.757 0 0 0-.319-.061c-.231 0-.412.065-.543.196-.13.13-.215.317-.255.56h1.505z" fill="#111517"/><ellipse fill="#D0D0D0" cx="59.772" cy="74.276" rx="3.507" ry="3.499"/></g><g transform="translate(90 82.787)"><circle stroke="#24A810" stroke-width="2" fill="#24A810" cx="10" cy="10" r="10"/><path d="M10.753 12.863L14.036 9.9 15 11.153l-5 4.514-5-4.514.964-1.254 3.283 2.964V4h1.506v8.863z" fill="#FFF" fill-rule="nonzero"/></g></g></svg>